<svg xmlns="http://www.w3.org/2000/svg" width="256" height="256" viewBox="0 0 100 100"><rect width="100" height="100" rx="20" fill="#2f3742"></rect><path d="M19.98 50.99Q19.98 49.64 20.88 48.74Q21.79 47.84 23.04 47.84L23.04 47.84L42.66 47.84Q43.92 47.84 44.87 46.90Q45.81 45.95 45.81 44.60L45.81 44.60L45.81 25.07Q45.81 23.81 44.87 22.91Q43.92 22.01 42.66 22.01L42.66 22.01L23.04 22.01Q21.79 22.01 20.88 21.07Q19.98 20.12 19.98 18.86L19.98 18.86L19.98 16.79Q19.98 15.44 20.88 14.54Q21.79 13.64 23.04 13.64L23.04 13.64L42.66 13.64Q43.92 13.64 44.87 12.88Q45.81 12.11 45.81 11.12L45.81 11.12Q45.81 10.13 46.72 9.41Q47.61 8.69 48.97 8.69L48.97 8.69L50.94 8.69Q52.20 8.69 53.15 9.41Q54.09 10.13 54.09 11.12L54.09 11.12Q54.09 12.11 55.04 12.88Q55.98 13.64 57.25 13.64L57.25 13.64L76.95 13.64Q78.22 13.64 79.11 14.54Q80.02 15.44 80.02 16.79L80.02 16.79L80.02 18.86Q80.02 20.12 79.11 21.07Q78.22 22.01 76.95 22.01L76.95 22.01L57.25 22.01Q55.98 22.01 55.04 22.91Q54.09 23.81 54.09 25.07L54.09 25.07L54.09 44.60Q54.09 45.95 55.04 46.90Q55.98 47.84 57.25 47.84L57.25 47.84L76.95 47.84Q78.22 47.84 79.11 48.74Q80.02 49.64 80.02 50.99L80.02 50.99L80.02 53.06Q80.02 54.32 79.11 55.27Q78.22 56.21 76.95 56.21L76.95 56.21L57.25 56.21Q55.98 56.21 55.04 57.11Q54.09 58.01 54.09 59.27L54.09 59.27L54.09 88.16Q54.09 89.42 53.15 90.37Q52.20 91.31 50.94 91.31L50.94 91.31L48.97 91.31Q47.61 91.31 46.72 90.37Q45.81 89.42 45.81 88.16L45.81 88.16L45.81 59.27Q45.81 58.01 44.87 57.11Q43.92 56.21 42.66 56.21L42.66 56.21L23.04 56.21Q21.79 56.21 20.88 55.27Q19.98 54.32 19.98 53.06L19.98 53.06L19.98 50.99ZM27.45 27.32Q28.71 27.32 29.66 28.27Q30.60 29.21 30.60 30.56L30.60 30.56L30.60 30.65Q30.60 31.91 30.96 32.81Q31.32 33.71 32.05 33.71L32.05 33.71L38.70 33.71Q39.97 33.71 40.91 34.61Q41.85 35.51 41.85 36.77L41.85 36.77L41.85 38.84Q41.85 40.19 40.91 41.14Q39.97 42.08 38.70 42.08L38.70 42.08L32.05 42.08Q30.70 42.08 29.16 41.45Q27.63 40.82 26.64 39.83L26.64 39.83L24.48 37.58Q23.49 36.59 22.82 35.02Q22.14 33.44 22.14 32.18L22.14 32.18L22.14 30.56Q22.14 29.21 23.09 28.27Q24.03 27.32 25.29 27.32L25.29 27.32L27.45 27.32ZM67.86 33.71Q68.58 33.71 68.99 32.81Q69.39 31.91 69.39 30.65L69.39 30.65L69.39 30.56Q69.39 29.21 70.30 28.27Q71.19 27.32 72.45 27.32L72.45 27.32L74.61 27.32Q75.88 27.32 76.77 28.27Q77.67 29.21 77.67 30.56L77.67 30.56L77.67 32.18Q77.67 33.44 77.05 35.02Q76.41 36.59 75.52 37.58L75.52 37.58L73.36 39.83Q72.36 40.82 70.83 41.45Q69.30 42.08 67.95 42.08L67.95 42.08L61.20 42.08Q59.94 42.08 59.05 41.14Q58.14 40.19 58.14 38.84L58.14 38.84L58.14 36.77Q58.14 35.51 59.05 34.61Q59.94 33.71 61.20 33.71L61.20 33.71L67.86 33.71ZM19.98 83.57Q19.98 82.22 20.75 81.32Q21.52 80.42 22.77 80.42L22.77 80.42Q23.95 80.42 24.71 79.52Q25.48 78.62 25.48 77.36L25.48 77.36L25.48 64.67Q25.48 63.32 26.42 62.42Q27.36 61.52 28.53 61.52L28.53 61.52L30.70 61.52Q32.05 61.52 32.95 62.42Q33.84 63.32 33.84 64.67L33.84 64.67L33.84 78.98Q33.84 80.33 33.22 81.91Q32.58 83.48 31.59 84.29L31.59 84.29L29.43 86.63Q28.35 87.53 26.82 88.16Q25.29 88.79 23.95 88.79L23.95 88.79L23.04 88.79Q21.79 88.79 20.88 87.89Q19.98 86.99 19.98 85.73L19.98 85.73L19.98 83.57ZM70.56 61.52Q71.91 61.52 72.81 62.42Q73.72 63.32 73.72 64.67L73.72 64.67L73.72 77.36Q73.72 78.62 74.61 79.52Q75.52 80.42 76.77 80.42L76.77 80.42L76.95 80.42Q78.22 80.42 79.11 81.32Q80.02 82.22 80.02 83.57L80.02 83.57L80.02 85.73Q80.02 86.99 79.11 87.89Q78.22 88.79 76.95 88.79L76.95 88.79L75.16 88.79Q73.89 88.79 72.32 88.16Q70.74 87.53 69.84 86.63L69.84 86.63L67.50 84.29Q66.61 83.39 65.93 81.81Q65.25 80.24 65.25 78.98L65.25 78.98L65.25 64.67Q65.25 63.32 66.20 62.42Q67.14 61.52 68.41 61.52L68.41 61.52L70.56 61.52Z" fill="#fff"></path></svg>