<?xml version="1.0" standalone="no"?>
<!DOCTYPE svg PUBLIC "-//W3C//DTD SVG 20010904//EN"
 "http://www.w3.org/TR/2001/REC-SVG-20010904/DTD/svg10.dtd">
<svg version="1.0" xmlns="http://www.w3.org/2000/svg"
 width="400.000000pt" height="400.000000pt" viewBox="0 0 400.000000 400.000000"
 preserveAspectRatio="xMidYMid meet">
<metadata>
Created by potrace 1.11, written by Peter Selinger 2001-2013
</metadata>
<g transform="translate(0.000000,400.000000) scale(0.100000,-0.100000)"
fill="#000000" stroke="none">
<path d="M1210 3925 c0 -62 -2 -73 -15 -69 -8 4 -15 1 -15 -5 0 -6 6 -10 13
-8 8 1 13 -19 15 -70 2 -56 0 -73 -11 -73 -15 0 -57 -36 -57 -50 0 -5 12 2 26
17 28 28 41 25 25 -5 -16 -30 -13 -60 7 -71 15 -10 15 -10 -3 -11 -12 0 -26 5
-33 12 -9 9 -12 9 -12 -1 0 -6 13 -17 30 -22 l29 -11 1 -404 c0 -411 -2 -433
-35 -387 -12 16 -12 14 -8 -10 4 -22 2 -27 -15 -27 -12 0 -26 -9 -32 -19 -17
-32 -12 -34 21 -7 17 14 39 26 50 26 17 0 19 -8 19 -70 0 -45 -6 -82 -15 -101
-14 -27 -14 -33 -1 -60 11 -22 15 -68 15 -179 l1 -150 -25 -12 c-21 -9 -33 -7
-76 16 -29 14 -53 25 -55 23 -2 -2 13 -12 33 -23 41 -21 78 -50 102 -78 9 -10
24 -28 34 -38 11 -11 26 -41 34 -66 9 -26 20 -52 24 -58 15 -18 24 -134 11
-134 -12 0 -24 5 -202 89 -125 58 -211 76 -319 67 -82 -7 -105 -12 -191 -46
-78 -32 -188 -60 -234 -60 -32 0 -37 3 -31 18 3 9 7 19 8 22 1 3 -2 7 -8 10
-5 3 -11 -10 -13 -28 -3 -27 -7 -33 -25 -32 -12 1 -40 1 -62 0 l-40 -3 45 -7
c83 -14 232 -5 284 19 193 85 354 108 446 65 25 -12 67 -29 95 -38 45 -16 123
-54 135 -66 21 -22 80 -33 200 -38 128 -4 163 -13 141 -35 -9 -9 -191 -11
-230 -3 -14 3 -29 10 -35 16 -5 5 -18 10 -28 10 -10 0 -17 4 -16 9 2 5 0 10
-4 10 -5 1 -24 10 -44 22 -20 11 -73 34 -118 52 -79 31 -85 31 -239 31 -112 0
-161 -4 -166 -12 -11 -18 -239 -90 -301 -96 -30 -2 -95 0 -145 5 -121 12 -125
13 -136 30 -6 10 -9 5 -9 -17 0 -34 13 -49 45 -56 12 -2 19 -11 18 -22 -1 -13
2 -15 10 -7 14 14 114 14 123 0 3 -6 3 -14 -2 -18 -5 -3 -10 -21 -11 -40 -1
-19 -9 -41 -18 -51 -16 -18 -20 -65 -6 -74 5 -3 12 11 16 32 9 53 29 79 57 76
13 -1 26 -3 31 -3 4 -1 7 -15 7 -33 0 -32 11 -33 15 -1 11 100 26 123 83 123
29 0 29 -1 36 -70 9 -91 25 -83 18 9 l-5 70 38 15 c21 9 40 15 42 12 2 -2 -8
-17 -22 -34 -24 -29 -35 -69 -15 -57 5 3 12 -6 16 -20 4 -15 25 -40 47 -56 70
-51 158 -36 213 36 22 29 31 34 53 29 14 -3 37 -20 51 -37 57 -72 66 -77 125
-77 75 0 111 20 126 69 9 29 9 47 -1 75 -7 21 -9 40 -5 44 10 10 23 -17 30
-65 3 -23 9 -43 11 -43 12 0 34 30 34 45 0 24 22 27 62 10 33 -13 37 -20 44
-62 7 -48 -8 -200 -27 -266 -7 -28 -14 -37 -26 -33 -9 4 -31 -8 -56 -29 -22
-19 -44 -35 -49 -35 -12 0 2 101 16 120 8 11 4 10 -14 -3 -88 -61 -251 -103
-360 -92 -142 13 -274 61 -300 110 -7 14 -15 23 -17 22 -3 -3 6 -52 22 -124 8
-33 -13 -29 -52 9 -28 27 -35 30 -43 18 -6 -10 -12 -11 -19 -5 -18 20 -43 111
-49 178 -2 38 -8 64 -12 58 -16 -27 17 -181 56 -264 23 -47 46 -50 38 -4 l-6
32 23 -27 c13 -15 36 -32 52 -37 47 -18 31 -31 -38 -31 -61 0 -84 -11 -50 -23
22 -9 33 -66 21 -107 -7 -22 -41 -64 -92 -115 -112 -112 -161 -188 -178 -280
l-8 -40 -47 51 c-42 46 -49 60 -60 124 -11 59 -9 160 4 210 1 3 5 21 9 40 11
54 39 130 47 130 4 0 12 15 18 32 16 44 -2 24 -32 -37 -32 -64 -77 -240 -77
-300 0 -25 5 -66 11 -91 9 -36 9 -50 -5 -78 -14 -29 -16 -82 -16 -380 l0 -346
524 0 525 0 3 27 c2 17 10 29 21 31 13 3 17 -3 17 -27 l0 -31 228 0 c188 0
232 3 257 16 35 18 188 83 225 95 14 4 115 40 225 79 110 39 223 77 250 84 28
7 98 29 158 50 130 44 148 46 121 14 -16 -20 -15 -20 10 2 16 14 50 45 75 69
52 49 138 91 187 91 19 0 34 3 33 8 0 4 -22 25 -48 47 -96 81 -177 213 -242
390 -9 28 -18 44 -18 36 -1 -10 -10 -12 -37 -8 -51 8 -64 23 -64 71 0 58 9 68
50 56 18 -5 35 -8 37 -6 2 2 -3 21 -12 42 -43 99 -64 239 -46 302 6 22 8 20
29 -23 13 -26 25 -46 27 -43 2 2 0 44 -5 93 -6 50 -10 143 -9 208 1 141 2 142
116 178 63 19 98 24 183 23 133 -1 221 -28 338 -105 24 -16 33 -18 32 -8 -5
34 1 60 12 53 7 -4 8 -3 4 5 -10 16 -128 70 -195 89 -83 24 -309 23 -378 -1
-29 -10 -53 -24 -53 -31 0 -7 -11 -23 -25 -36 l-25 -23 1 94 c1 114 22 276 32
239 3 -14 13 -60 22 -102 9 -43 20 -80 24 -82 4 -3 12 43 19 100 17 140 89
485 120 574 3 8 9 -26 13 -77 4 -50 9 -96 12 -101 4 -4 11 -49 17 -98 6 -49
13 -97 16 -106 4 -12 0 -18 -10 -18 -14 0 -13 -3 2 -18 10 -10 32 -72 50 -138
18 -66 36 -125 40 -132 5 -6 13 62 20 151 11 143 40 352 48 344 3 -2 34 -245
34 -262 0 -4 -15 -4 -32 -1 l-33 6 35 -13 c33 -13 36 -18 55 -94 11 -45 23
-84 27 -88 4 -4 10 25 14 64 3 39 10 71 15 71 4 0 5 15 2 34 -8 50 46 350 101
566 8 30 18 80 22 109 9 70 19 46 33 -77 34 -302 103 -607 200 -893 48 -141
162 -414 180 -432 5 -5 11 53 15 150 7 191 25 435 34 482 6 29 12 15 40 -105
47 -193 95 -334 114 -334 5 0 6 88 2 203 -5 167 10 853 21 947 2 14 4 59 5
100 2 84 -1 92 41 -95 31 -138 87 -365 103 -415 13 -40 15 50 15 793 l1 837
-753 0 c-589 0 -756 -3 -766 -12 -11 -10 -14 -10 -18 0 -3 6 -20 12 -40 12
-34 0 -34 -1 -32 -38 2 -21 0 -43 -5 -50 -15 -25 -26 -10 -26 38 0 50 0 50
-33 50 l-33 0 -3 -87 c-3 -124 -21 -132 -21 -10 0 95 -1 97 -23 97 -13 0 -29
-6 -36 -12 -11 -10 -14 -10 -18 0 -11 29 -23 8 -23 -38 0 -33 -4 -50 -12 -50
-10 0 -14 -33 -15 -125 -2 -98 -6 -132 -20 -157 -18 -33 -18 -31 -21 175 -2
171 -5 207 -17 207 -11 0 -14 -38 -14 -227 0 -283 1 -263 -11 -263 -6 0 -10
88 -10 245 l0 245 -25 0 c-23 0 -25 -4 -27 -52 -1 -29 -1 -68 0 -85 1 -24 -3
-33 -13 -33 -13 0 -15 13 -9 85 5 74 4 85 -10 85 -14 0 -16 -22 -16 -187 0
-114 -4 -194 -11 -203 -7 -11 -9 45 -6 187 l4 202 -88 0 c-82 0 -88 -2 -91
-22 -4 -27 -23 -24 -22 3 1 19 -7 20 -133 20 -85 0 -133 -4 -133 -10 0 -7 -6
-7 -19 0 -11 5 -69 10 -130 10 l-111 0 0 -75z m329 -122 c0 -104 -4 -210 -9
-238 -5 -32 -8 33 -9 188 -1 152 3 237 9 237 6 0 10 -69 9 -187z m261 166 c0
-11 -4 -17 -10 -14 -5 3 -10 13 -10 21 0 8 5 14 10 14 6 0 10 -9 10 -21z
m-290 -10 c0 -11 -4 -18 -10 -14 -5 3 -7 12 -3 20 7 21 13 19 13 -6z m-143
-106 c-2 -21 -4 -6 -4 32 0 39 2 55 4 38 2 -18 2 -50 0 -70z m358 76 c12 -12
28 -11 20 1 -3 6 -1 10 4 10 17 0 13 -56 -4 -70 -19 -16 -20 -34 -1 -27 12 5
15 -23 16 -174 0 -169 -1 -181 -18 -186 -15 -3 -19 -15 -21 -54 -1 -32 2 -48
9 -44 5 3 16 3 22 -1 18 -11 -24 -22 -89 -23 l-53 -1 0 288 c0 159 3 292 7
296 9 8 95 -3 108 -15z m-215 -9 c0 -5 -5 -10 -11 -10 -5 0 -7 5 -4 10 3 6 8
10 11 10 2 0 4 -4 4 -10z m687 -12 c-3 -8 -6 -5 -6 6 -1 11 2 17 5 13 3 -3 4
-12 1 -19z m-400 -50 c-2 -13 -4 -3 -4 22 0 25 2 35 4 23 2 -13 2 -33 0 -45z
m-380 -5 c-3 -10 -5 -4 -5 12 0 17 2 24 5 18 2 -7 2 -21 0 -30z m424 -199 c-3
-232 -13 -317 -24 -219 -5 40 -3 440 2 453 0 2 7 2 14 -1 9 -3 11 -56 8 -233z
m153 124 c-1 -13 -3 -51 -3 -85 -1 -35 -5 -63 -11 -63 -11 0 -14 138 -4 164 9
22 21 11 18 -16z m173 0 c-3 -7 -5 -2 -5 12 0 14 2 19 5 13 2 -7 2 -19 0 -25z
m-290 -60 c-2 -13 -4 -3 -4 22 0 25 2 35 4 23 2 -13 2 -33 0 -45z m-77 26 c0
-14 -4 -23 -9 -20 -5 3 -7 15 -4 26 7 28 13 25 13 -6z m410 -18 c0 -3 -4 -8
-10 -11 -5 -3 -10 -1 -10 4 0 6 5 11 10 11 6 0 10 -2 10 -4z m-843 -103 c-3
-10 -5 -4 -5 12 0 17 2 24 5 18 2 -7 2 -21 0 -30z m102 -113 c-1 -137 -6 -169
-24 -139 -10 15 6 289 16 289 5 0 9 -67 8 -150z m-89 -40 c0 -11 -4 -20 -10
-20 -5 0 -10 9 -10 20 0 11 5 20 10 20 6 0 10 -9 10 -20z m207 -25 c-4 -8 -11
-15 -17 -15 -14 0 -13 27 3 33 16 6 21 1 14 -18z m206 -10 c4 -8 2 -17 -3 -20
-6 -4 -10 3 -10 14 0 25 6 27 13 6z m153 -28 c-6 -45 -7 -45 -16 -14 -9 31 -3
60 11 51 5 -3 7 -19 5 -37z m-419 -14 c-3 -10 -5 -4 -5 12 0 17 2 24 5 18 2
-7 2 -21 0 -30z m-147 -8 c0 -8 -4 -15 -10 -15 -5 0 -10 7 -10 15 0 8 5 15 10
15 6 0 10 -7 10 -15z m420 -5 c0 -5 -7 -10 -16 -10 -8 0 -12 5 -9 10 3 6 10
10 16 10 5 0 9 -4 9 -10z m-140 -685 c0 -407 -2 -455 -16 -455 -14 0 -15 47
-13 448 1 246 4 450 6 455 19 34 23 -37 23 -448z m-220 420 c0 -14 5 -25 10
-25 6 0 10 11 10 25 0 21 5 25 29 25 20 0 28 -5 28 -17 0 -78 4 -103 17 -103
13 0 29 43 25 66 -6 35 25 50 34 17 3 -11 5 -7 6 10 0 15 6 27 11 27 16 0 12
-77 -5 -94 -8 -8 -15 -21 -15 -28 0 -10 3 -9 10 2 8 12 10 10 10 -10 0 -14 3
-36 6 -50 5 -17 3 -22 -4 -15 -6 6 -12 21 -15 35 -3 14 -4 4 -3 -23 1 -33 5
-46 14 -42 9 3 12 -51 12 -250 0 -158 -4 -255 -10 -255 -5 0 -11 54 -13 128
-2 106 -3 96 -5 -60 -1 -120 -6 -189 -13 -193 -6 -4 -19 2 -30 14 -11 12 -15
21 -9 21 5 0 10 4 10 8 0 10 -30 12 -31 3 0 -3 -3 -24 -5 -46 -3 -21 -7 -41
-9 -44 -3 -2 -43 -5 -90 -6 l-85 -2 0 166 c0 91 3 284 7 429 5 209 9 262 20
262 8 0 14 -13 14 -32 2 -32 2 -32 6 -4 3 17 12 30 24 33 12 3 19 14 19 29 0
13 5 24 10 24 6 0 10 -11 10 -25z m345 16 c3 -5 1 -12 -5 -16 -5 -3 -10 1 -10
9 0 18 6 21 15 7z m58 -41 c6 -45 -7 -113 -22 -118 -6 -2 -11 -32 -11 -68 0
-35 -3 -64 -7 -64 -5 0 -7 65 -5 145 3 132 5 145 21 145 14 0 20 -10 24 -40z
m-156 -2 c-3 -7 -5 -2 -5 12 0 14 2 19 5 13 2 -7 2 -19 0 -25z m61 -99 c-2
-76 -6 -94 -18 -94 -20 0 -28 184 -8 196 23 15 29 -7 26 -102z m39 -115 c-9
-9 -28 6 -21 18 4 6 10 6 17 -1 6 -6 8 -13 4 -17z m-38 -51 c0 -53 -9 -72 -31
-73 -5 0 -8 29 -8 65 0 58 2 65 19 65 17 0 20 -7 20 -57z m35 -37 c-5 -13 -9
-14 -14 -5 -11 16 0 43 12 31 5 -5 6 -17 2 -26z m-4 -167 c0 -66 -4 -98 -10
-94 -7 4 -9 42 -6 98 5 103 4 97 11 97 3 0 5 -45 5 -101z m-40 -36 c0 -12 -4
-23 -10 -23 -16 0 -12 -37 5 -43 21 -9 15 -99 -8 -103 -9 -1 -17 4 -17 12 -1
8 -1 48 -1 89 0 41 0 79 1 83 1 21 30 7 30 -15z m-120 -213 c0 -16 -4 -30 -10
-30 -5 0 -10 14 -10 30 0 17 5 30 10 30 6 0 10 -13 10 -30z m97 -17 c-3 -10
-5 -2 -5 17 0 19 2 27 5 18 2 -10 2 -26 0 -35z m-97 -88 c0 -14 -4 -25 -9 -25
-6 0 -8 36 -2 48 5 10 11 -2 11 -23z m120 6 c0 -4 -9 -7 -20 -8 -19 -2 -26 8
-14 20 7 7 34 -2 34 -12z m-980 -475 l0 -34 -37 14 c-21 7 -49 14 -63 15 -18
1 -9 6 30 19 72 25 70 25 70 -14z m144 -14 c6 -29 6 -46 -2 -54 -8 -8 -13 -4
-18 16 -8 35 -26 33 -42 -4 -12 -25 -17 -28 -33 -20 -15 8 -19 22 -19 61 l0
50 52 -3 53 -3 9 -43z m92 16 c38 -19 32 -32 -17 -40 -47 -8 -59 0 -59 40 0
18 4 22 25 18 13 -3 36 -10 51 -18z m-126 -78 c0 -5 -4 -10 -10 -10 -5 0 -10
5 -10 10 0 6 5 10 10 10 6 0 10 -4 10 -10z m328 -38 c5 -31 -15 -27 -21 3 -3
16 0 24 7 22 6 -2 12 -13 14 -25z m986 -122 c0 -47 2 -74 6 -60 5 20 10 8 24
-55 9 -44 28 -120 42 -170 13 -49 24 -97 24 -105 0 -28 -48 42 -102 150 l-53
105 0 113 c0 101 2 115 20 128 17 13 20 12 29 -3 5 -10 10 -56 10 -103z m-834
-21 c0 -28 -5 -93 -11 -145 -10 -81 -9 -100 5 -134 27 -68 23 -77 -41 -92
-116 -26 -400 -6 -373 27 5 6 7 14 5 17 -5 5 19 13 138 42 57 14 58 14 55 -6
-5 -33 15 -31 63 7 51 40 59 43 52 15 -4 -14 0 -20 10 -20 28 0 76 194 77 308
0 26 4 41 10 37 6 -3 10 -29 10 -56z m-660 -303 c41 -9 83 -16 92 -16 9 0 18
-5 20 -11 2 -6 25 -11 50 -11 26 -1 45 -5 42 -9 -5 -9 45 -24 113 -35 38 -6
41 -8 32 -26 -13 -24 -12 -24 -139 -38 -98 -12 -105 -14 -105 -34 l0 -22 95
17 c52 9 98 15 102 13 3 -2 20 9 36 26 38 38 58 38 80 1 14 -26 18 -27 28 -13
15 21 27 11 27 -23 0 -14 3 -28 8 -31 16 -10 9 -33 -11 -39 -12 -4 -27 -2 -34
4 -7 6 -15 9 -17 7 -2 -2 0 -63 5 -135 8 -123 8 -133 -10 -147 -19 -14 -19
-15 1 -12 19 3 20 11 18 135 -1 102 1 131 11 127 7 -3 25 5 40 17 19 15 25 27
21 43 -10 34 51 -72 65 -114 10 -31 10 -46 -4 -92 -17 -59 -55 -118 -56 -86 0
11 -17 -2 -51 -38 -59 -62 -84 -70 -77 -24 4 27 2 30 -21 30 -14 0 -46 -5 -71
-11 -25 -6 -88 -14 -140 -19 -97 -9 -181 2 -435 56 -102 22 -101 21 -76 90 11
32 19 60 17 62 -8 7 -46 -110 -46 -141 0 -40 -10 -77 -20 -77 -4 0 -18 31 -30
70 -23 73 -21 120 5 120 9 0 20 10 24 23 5 12 28 39 50 61 l41 38 -11 -31 c-6
-18 -9 -35 -5 -38 3 -4 6 -1 6 6 0 22 52 122 66 128 8 3 14 11 14 18 0 13 30
53 63 83 9 9 17 24 17 34 0 16 13 18 123 20 l122 2 -108 3 c-105 4 -108 4
-117 29 -19 49 -15 54 33 40 23 -8 76 -21 117 -30z m1809 -72 c14 -53 11 -60
-18 -44 -21 11 -26 36 -15 77 9 32 20 21 33 -33z m-1125 -66 c10 -38 7 -221
-5 -279 -6 -30 -22 -67 -35 -84 l-24 -30 0 56 c0 68 -54 232 -95 284 -15 20
-25 38 -23 40 6 7 122 33 149 34 20 1 28 -5 33 -21z m906 -48 c0 -5 -4 -10
-10 -10 -5 0 -10 5 -10 10 0 6 5 10 10 10 6 0 10 -4 10 -10z m45 -80 c3 -5 1
-10 -4 -10 -6 0 -11 5 -11 10 0 6 2 10 4 10 3 0 8 -4 11 -10z m195 -66 c0 -5
-52 7 -59 12 -2 2 4 13 14 24 18 20 18 20 31 -6 8 -15 14 -28 14 -30z m-180
16 c0 -6 -23 -9 -52 -8 l-53 1 50 7 c28 4 51 8 53 8 1 1 2 -2 2 -8z m21 -77
c5 -13 9 -27 9 -30 0 -6 -523 7 -529 13 -2 2 38 4 90 4 64 0 89 3 79 10 -8 5
-35 11 -60 12 -50 2 200 14 323 15 74 0 79 -1 88 -24z m185 2 c15 -31 10 -35
-48 -35 -44 0 -48 2 -48 23 0 32 7 37 49 37 28 0 38 -5 47 -25z m-523 -82 c-7
-2 -19 -2 -25 0 -7 3 -2 5 12 5 14 0 19 -2 13 -5z m-96 -19 c-3 -3 -12 -4 -19
-1 -8 3 -5 6 6 6 11 1 17 -2 13 -5z m-64 -21 c-7 -2 -19 -2 -25 0 -7 3 -2 5
12 5 14 0 19 -2 13 -5z m-1423 -44 c0 -25 -2 -28 -13 -17 -25 25 -28 48 -7 48
16 0 20 -7 20 -31z m1310 11 c-14 -4 -54 -8 -90 -8 -59 1 -61 2 -20 7 25 3 65
7 90 7 35 1 40 0 20 -6z m-1100 -22 c69 -12 82 -20 57 -35 -7 -4 -24 -23 -37
-42 l-23 -34 -44 48 c-41 46 -54 75 -33 75 5 0 41 -5 80 -12z m268 -21 c-15
-12 -41 -28 -58 -34 l-30 -11 20 28 c19 26 38 35 80 38 9 1 4 -8 -12 -21z
m139 -13 c3 -9 -2 -31 -11 -50 -9 -19 -16 -46 -16 -59 0 -26 -7 -30 -28 -16
-16 10 -6 121 12 133 18 12 36 9 43 -8z m-529 -78 c2 -46 -2 -84 -8 -90 -7 -7
-10 -1 -10 20 0 17 -7 53 -15 80 -20 67 -19 76 8 72 20 -3 22 -9 25 -82z
m1072 80 c0 -2 -7 -7 -16 -10 -8 -3 -12 -2 -9 4 6 10 25 14 25 6z m-76 -21
c-4 -8 -11 -12 -16 -9 -6 4 -5 10 3 15 19 12 19 11 13 -6z m-47 -1 c-3 -3 -12
-4 -19 -1 -8 3 -5 6 6 6 11 1 17 -2 13 -5z m-137 -49 c0 -9 -60 -9 -63 0 -3 7
7 9 29 7 19 -2 34 -5 34 -7z m130 5 c0 -5 -4 -10 -10 -10 -5 0 -10 5 -10 10 0
6 5 10 10 10 6 0 10 -4 10 -10z m-86 -25 c-7 -17 11 -21 21 -5 3 6 11 10 17
10 7 0 6 -6 -2 -15 -14 -17 -29 -19 -50 -5 -13 9 -13 11 0 20 20 13 20 13 14
-5z m-86 -121 c-13 -13 -25 -15 -55 -8 l-38 8 45 6 c25 4 49 8 55 8 5 1 2 -5
-7 -14z m-168 -133 c0 -10 -9 -12 -37 -7 -21 3 -59 6 -85 6 -27 0 -48 3 -48 8
0 4 38 7 85 7 66 0 85 -3 85 -14z m26 -8 c-10 -10 -19 5 -10 18 6 11 8 11 12
0 2 -7 1 -15 -2 -18z m44 23 c0 -2 -7 -20 -15 -40 l-15 -36 -193 4 c-105 2
-243 5 -306 5 -63 1 -112 3 -109 7 3 3 74 5 158 5 119 0 157 3 175 15 18 12
36 13 87 7 34 -5 92 -7 127 -5 52 3 64 7 68 23 4 16 23 28 23 15z m-257 -13
c-7 -2 -19 -2 -25 0 -7 3 -2 5 12 5 14 0 19 -2 13 -5z m207 -100 c0 -2 -7 -21
-16 -43 l-16 -40 -111 0 c-61 0 -107 3 -103 7 7 7 30 10 116 12 36 1 41 4 27
12 -9 5 -22 7 -27 4 -6 -3 -10 -2 -10 4 0 5 26 11 58 13 31 2 -16 4 -104 5
-222 3 -262 16 -69 24 151 5 255 6 255 2z m-127 -150 c-13 -2 -33 -2 -45 0
-13 2 -3 4 22 4 25 0 35 -2 23 -4z"/>
<path d="M1730 3900 c0 -5 5 -10 10 -10 6 0 10 5 10 10 0 6 -4 10 -10 10 -5 0
-10 -4 -10 -10z"/>
<path d="M1372 2990 c0 -19 2 -27 5 -17 2 9 2 25 0 35 -3 9 -5 1 -5 -18z"/>
<path d="M1373 2850 c0 -30 2 -43 4 -27 2 15 2 39 0 55 -2 15 -4 2 -4 -28z"/>
<path d="M1373 2755 c0 -22 2 -30 4 -17 2 12 2 30 0 40 -3 9 -5 -1 -4 -23z"/>
<path d="M1592 2700 c0 -19 2 -27 5 -17 2 9 2 25 0 35 -3 9 -5 1 -5 -18z"/>
<path d="M1520 2486 c0 -7 7 -13 15 -13 8 0 15 4 15 8 0 4 -7 9 -15 13 -9 3
-15 0 -15 -8z"/>
<path d="M1440 2480 c0 -5 4 -10 9 -10 6 0 13 5 16 10 3 6 -1 10 -9 10 -9 0
-16 -4 -16 -10z"/>
<path d="M1815 3100 c-3 -5 -1 -10 4 -10 6 0 11 5 11 10 0 6 -2 10 -4 10 -3 0
-8 -4 -11 -10z"/>
<path d="M1810 3059 c0 -5 5 -7 10 -4 6 3 10 8 10 11 0 2 -4 4 -10 4 -5 0 -10
-5 -10 -11z"/>
<path d="M1721 2464 c0 -11 3 -14 6 -6 3 7 2 16 -1 19 -3 4 -6 -2 -5 -13z"/>
<path d="M638 1093 c7 -3 16 -2 19 1 4 3 -2 6 -13 5 -11 0 -14 -3 -6 -6z"/>
<path d="M735 1021 c-9 -11 -34 -22 -54 -24 l-36 -4 36 -1 c26 -2 42 4 59 23
13 14 21 25 18 25 -3 0 -13 -9 -23 -19z"/>
<path d="M1060 1030 c8 -5 20 -10 25 -10 6 0 3 5 -5 10 -8 5 -19 10 -25 10 -5
0 -3 -5 5 -10z"/>
<path d="M1035 3870 c-3 -5 -2 -10 4 -10 5 0 13 5 16 10 3 6 2 10 -4 10 -5 0
-13 -4 -16 -10z"/>
<path d="M1126 3845 c-3 -8 -13 -15 -23 -15 -30 0 -85 -72 -65 -84 4 -2 13 8
20 24 8 17 29 36 52 47 40 18 47 27 31 37 -5 3 -11 -1 -15 -9z"/>
<path d="M2110 3819 c0 -11 5 -17 10 -14 6 3 10 13 10 21 0 8 -4 14 -10 14 -5
0 -10 -9 -10 -21z"/>
<path d="M785 3789 c-10 -15 3 -25 16 -12 7 7 7 13 1 17 -6 3 -14 1 -17 -5z"/>
<path d="M730 3754 c0 -14 3 -15 18 -3 9 7 19 15 21 16 2 2 -5 3 -17 3 -14 0
-22 -6 -22 -16z"/>
<path d="M1011 3694 c0 -11 3 -14 6 -6 3 7 2 16 -1 19 -3 4 -6 -2 -5 -13z"/>
<path d="M103 3650 c-18 -8 -33 -18 -33 -22 0 -13 27 -9 40 6 6 8 21 16 33 18
16 2 18 5 7 8 -8 3 -30 -1 -47 -10z"/>
<path d="M797 3593 c-11 -10 -8 -43 3 -43 6 0 10 11 10 25 0 26 -2 29 -13 18z"/>
<path d="M1040 3571 c0 -5 7 -15 17 -22 15 -13 15 -12 4 9 -12 23 -21 28 -21
13z"/>
<path d="M1090 3526 c0 -3 9 -10 20 -16 11 -6 20 -8 20 -6 0 3 -9 10 -20 16
-11 6 -20 8 -20 6z"/>
<path d="M180 3500 c0 -5 5 -10 10 -10 6 0 10 5 10 10 0 6 -4 10 -10 10 -5 0
-10 -4 -10 -10z"/>
<path d="M152 3488 c-19 -19 -14 -66 8 -88 31 -31 40 -24 40 31 0 34 -4 48
-11 43 -7 -4 -9 -21 -6 -40 6 -35 -1 -42 -21 -22 -15 15 -15 51 0 66 6 6 9 14
7 17 -3 2 -11 -1 -17 -7z"/>
<path d="M930 3224 c0 -8 5 -12 10 -9 6 3 10 10 10 16 0 5 -4 9 -10 9 -5 0
-10 -7 -10 -16z"/>
<path d="M892 3195 c-20 -10 -21 -13 -7 -19 23 -8 22 -9 28 14 3 11 4 20 4 19
-1 -1 -12 -7 -25 -14z"/>
<path d="M932 3151 c16 -26 49 -35 40 -12 -7 19 -22 31 -40 31 -10 0 -10 -4 0
-19z"/>
<path d="M838 3033 c8 -3 22 -19 32 -36 17 -27 17 -32 3 -53 -8 -13 -13 -24
-9 -24 3 0 13 11 21 24 14 20 14 29 4 48 -14 26 -39 48 -54 47 -5 0 -4 -3 3
-6z"/>
<path d="M1011 2998 c0 -14 -4 -35 -7 -45 -5 -17 -5 -17 6 0 6 10 9 30 7 45
l-4 27 -2 -27z"/>
<path d="M536 3002 c-2 -4 4 -8 14 -8 10 0 16 4 14 8 -3 4 -9 8 -14 8 -5 0
-11 -4 -14 -8z"/>
<path d="M820 2975 c0 -25 4 -35 13 -32 6 2 12 16 12 32 0 16 -6 30 -12 33 -9
2 -13 -8 -13 -33z"/>
<path d="M497 2969 c-10 -6 -25 -8 -33 -5 -8 3 -14 1 -14 -4 0 -4 17 -14 38
-21 20 -7 46 -17 57 -24 12 -7 30 -9 45 -5 22 7 22 8 4 9 -12 1 -36 6 -53 12
-25 9 -31 16 -28 30 3 11 4 19 4 19 -1 0 -10 -5 -20 -11z"/>
<path d="M624 2935 c4 -35 16 -44 16 -12 0 14 -4 28 -9 32 -5 3 -8 -6 -7 -20z"/>
<path d="M805 2910 c3 -5 8 -10 11 -10 2 0 4 5 4 10 0 6 -5 10 -11 10 -5 0 -7
-4 -4 -10z"/>
<path d="M940 2875 c-8 -9 -8 -15 -2 -15 12 0 26 19 19 26 -2 2 -10 -2 -17
-11z"/>
<path d="M450 2866 c0 -9 5 -16 10 -16 6 0 10 4 10 9 0 6 -4 13 -10 16 -5 3
-10 -1 -10 -9z"/>
<path d="M613 2780 c0 -25 2 -35 4 -22 2 12 2 32 0 45 -2 12 -4 2 -4 -23z"/>
<path d="M450 2792 c0 -12 -4 -22 -10 -22 -5 0 -10 5 -10 10 0 6 -5 10 -12 10
-6 0 -4 -8 6 -19 9 -10 20 -35 23 -55 6 -41 13 -44 36 -18 24 27 21 65 -8 92
l-25 23 0 -21z"/>
<path d="M220 2785 c0 -6 16 -12 35 -13 43 -3 84 -18 108 -39 12 -12 21 -13
28 -6 8 8 0 14 -25 23 -20 6 -36 15 -36 19 0 4 -25 11 -55 17 -39 7 -55 7 -55
-1z"/>
<path d="M1093 2776 c-20 -9 -38 -34 -31 -41 2 -2 19 10 38 26 35 30 32 35 -7
15z"/>
<path d="M1040 2719 c0 -11 34 -16 55 -9 16 6 12 8 -17 12 -21 2 -38 1 -38 -3z"/>
<path d="M221 2665 c1 -33 4 -88 8 -123 6 -62 6 -62 28 -47 11 8 20 23 18 32
-12 59 -14 83 -6 83 4 0 13 -10 19 -22 11 -20 12 -21 9 -3 -1 11 -17 29 -34
40 -26 16 -32 25 -28 45 3 14 1 32 -5 40 -7 11 -9 -2 -9 -45z"/>
<path d="M590 2700 c-6 -11 -8 -20 -6 -20 3 0 10 9 16 20 6 11 8 20 6 20 -3 0
-10 -9 -16 -20z"/>
<path d="M410 2675 c0 -5 5 -17 10 -25 5 -8 10 -10 10 -5 0 6 -5 17 -10 25 -5
8 -10 11 -10 5z"/>
<path d="M1080 2656 c-14 -37 -24 -82 -17 -76 9 8 37 94 32 98 -3 3 -9 -7 -15
-22z"/>
<path d="M428 2595 c-3 -22 -9 -49 -12 -60 -4 -11 1 -5 9 14 9 18 15 45 13 60
-3 21 -5 18 -10 -14z"/>
<path d="M472 2619 c-13 -5 -20 -13 -17 -19 4 -6 17 -4 36 5 45 24 31 35 -19
14z"/>
<path d="M1070 2513 c0 -12 5 -25 10 -28 13 -8 13 15 0 35 -8 12 -10 11 -10
-7z"/>
<path d="M1085 2460 c3 -5 8 -10 11 -10 2 0 4 5 4 10 0 6 -5 10 -11 10 -5 0
-7 -4 -4 -10z"/>
<path d="M253 2433 c-18 -6 -16 -23 1 -23 17 0 30 16 19 23 -5 2 -14 2 -20 0z"/>
<path d="M298 2433 c7 -3 16 -2 19 1 4 3 -2 6 -13 5 -11 0 -14 -3 -6 -6z"/>
<path d="M745 2430 c3 -5 8 -10 11 -10 2 0 4 5 4 10 0 6 -5 10 -11 10 -5 0 -7
-4 -4 -10z"/>
<path d="M770 2396 c0 -10 -13 -22 -31 -28 -16 -6 -28 -13 -24 -16 3 -3 -3
-15 -12 -26 -16 -19 -15 -19 7 1 14 12 43 29 64 38 21 9 37 17 35 18 -2 2 -12
9 -21 16 -16 12 -18 11 -18 -3z"/>
<path d="M647 2382 c-10 -10 -17 -26 -17 -35 0 -28 35 0 36 29 2 29 2 29 -19
6z"/>
<path d="M672 2288 c-7 -7 -12 -16 -12 -21 0 -6 -8 -16 -17 -24 -10 -8 -13
-12 -7 -9 6 3 56 6 111 8 77 2 97 5 86 13 -10 8 -33 8 -73 2 -73 -12 -95 -5
-80 23 12 23 9 25 -8 8z"/>
<path d="M200 2261 c0 -5 7 -14 15 -21 20 -16 19 -30 -1 -30 -40 0 22 -124 82
-165 47 -32 53 -49 29 -95 -9 -17 -12 -30 -7 -30 5 0 17 20 27 46 9 25 32 68
51 96 39 58 39 58 18 58 -43 0 -164 83 -164 112 0 10 -30 38 -41 38 -5 0 -9
-4 -9 -9z m44 -76 c-7 -16 -24 -21 -24 -6 0 8 7 13 27 20 1 1 0 -6 -3 -14z
m31 -35 c-3 -5 -11 -10 -16 -10 -6 0 -7 5 -4 10 3 6 11 10 16 10 6 0 7 -4 4
-10z m41 -36 c-9 -9 -20 -14 -23 -10 -4 3 2 13 13 20 25 18 31 12 10 -10z"/>
<path d="M980 2220 c68 -25 76 -25 26 0 -22 11 -49 20 -60 20 -12 -1 4 -10 34
-20z"/>
<path d="M460 2163 c0 -6 9 -9 20 -6 30 8 33 21 5 19 -14 0 -25 -6 -25 -13z"/>
<path d="M3080 1957 c0 -7 74 -41 112 -52 39 -12 8 10 -42 30 -25 9 -51 19
-57 22 -7 3 -13 3 -13 0z"/>
<path d="M251 1894 c0 -11 3 -14 6 -6 3 7 2 16 -1 19 -3 4 -6 -2 -5 -13z"/>
<path d="M93 1833 c9 -2 23 -2 30 0 6 3 -1 5 -18 5 -16 0 -22 -2 -12 -5z"/>
<path d="M3973 1833 c-7 -2 -13 -11 -13 -18 0 -7 6 -15 13 -18 9 -3 9 -9 -1
-27 -13 -20 -12 -22 3 -16 9 3 19 6 21 6 2 0 4 18 4 40 0 40 -3 43 -27 33z"/>
<path d="M2933 1643 c-23 -34 -30 -158 -13 -219 11 -38 16 -44 40 -44 30 0 30
-2 36 103 5 66 3 77 -10 77 -9 0 -16 7 -16 15 0 8 5 15 10 15 11 0 13 39 4 64
-9 24 -31 19 -51 -11z"/>
<path d="M72 1600 c0 -14 2 -19 5 -12 2 6 2 18 0 25 -3 6 -5 1 -5 -13z"/>
<path d="M1231 1534 c0 -11 3 -14 6 -6 3 7 2 16 -1 19 -3 4 -6 -2 -5 -13z"/>
<path d="M652 1518 c-7 -7 -12 -19 -12 -27 1 -13 4 -12 16 4 8 11 22 19 31 17
8 -2 12 1 8 7 -8 14 -28 14 -43 -1z"/>
<path d="M199 1488 c-13 -25 -19 -149 -6 -141 4 2 7 23 7 46 0 23 4 58 10 76
12 42 6 51 -11 19z"/>
<path d="M1223 1470 c-5 -22 -7 -37 -2 -35 9 6 23 64 17 70 -2 3 -9 -13 -15
-35z"/>
<path d="M728 1493 c7 -3 16 -2 19 1 4 3 -2 6 -13 5 -11 0 -14 -3 -6 -6z"/>
<path d="M788 1477 c34 -9 163 -11 191 -2 16 5 25 -1 41 -27 15 -26 20 -29 20
-13 0 44 -11 48 -149 49 -77 1 -119 -2 -103 -7z"/>
<path d="M131 1477 c2 -1 13 -9 24 -17 19 -14 19 -14 6 3 -7 9 -18 17 -24 17
-6 0 -8 -1 -6 -3z"/>
<path d="M632 1450 c0 -14 2 -19 5 -12 2 6 2 18 0 25 -3 6 -5 1 -5 -13z"/>
<path d="M1196 1403 c-6 -14 -5 -15 5 -6 7 7 10 15 7 18 -3 3 -9 -2 -12 -12z"/>
<path d="M674 1351 c11 -11 23 -21 28 -21 14 0 -1 19 -25 31 -22 12 -22 12 -3
-10z"/>
<path d="M1000 1360 c-8 -5 -12 -12 -9 -15 4 -3 12 1 19 10 14 17 11 19 -10 5z"/>
<path d="M730 1320 c8 -5 30 -10 49 -10 45 0 37 6 -19 14 -31 4 -40 3 -30 -4z"/>
<path d="M910 1320 l-35 -7 35 -2 c19 0 42 4 50 9 13 9 13 10 0 9 -8 -1 -31
-5 -50 -9z"/>
<path d="M3430 1291 c0 -29 1 -30 63 -36 122 -13 263 -9 273 7 3 4 3 16 -1 26
-5 17 -10 18 -71 7 -67 -13 -209 -4 -246 16 -15 8 -18 5 -18 -20z"/>
<path d="M140 1295 c-7 -9 -8 -15 -2 -15 5 0 12 7 16 15 3 8 4 15 2 15 -2 0
-9 -7 -16 -15z"/>
<path d="M3416 1053 c-4 -4 -42 -13 -84 -19 -55 -9 -65 -12 -37 -13 48 -1 113
13 128 28 6 6 9 11 6 11 -3 0 -9 -3 -13 -7z"/>
<path d="M3178 1013 c12 -2 30 -2 40 0 9 3 -1 5 -23 4 -22 0 -30 -2 -17 -4z"/>
<path d="M3643 553 c15 -2 37 -2 50 0 12 2 0 4 -28 4 -27 0 -38 -2 -22 -4z"/>
<path d="M2870 477 c0 -13 -15 -45 -32 -71 -124 -184 -160 -246 -123 -216 8 7
15 17 15 22 0 19 85 148 98 148 15 0 15 -6 2 -29 -5 -10 -19 -79 -30 -152 -12
-74 -23 -144 -27 -156 -3 -14 -1 -23 6 -23 6 0 11 10 11 23 0 22 42 232 75
373 l16 72 43 -24 42 -23 23 -119 c12 -65 33 -143 45 -173 22 -56 74 -129 90
-129 4 0 5 25 1 55 -6 53 -56 263 -70 298 -6 15 2 12 46 -12 160 -90 289 -158
327 -173 23 -10 54 -25 68 -34 13 -9 27 -14 30 -12 2 3 -74 45 -171 94 -96 48
-175 90 -175 94 0 3 -17 14 -37 24 -37 17 -192 110 -245 148 l-28 19 0 -24z"/>
<path d="M3882 188 c-51 -27 -91 -52 -89 -55 3 -2 20 5 38 15 19 11 66 36 104
56 39 20 63 36 55 36 -8 -1 -57 -24 -108 -52z"/>
<path d="M3735 115 c-16 -7 -23 -14 -14 -14 8 -1 24 6 35 14 24 18 18 18 -21
0z"/>
<path d="M3560 105 c14 -8 39 -14 55 -14 29 1 29 1 5 8 -14 4 -38 11 -55 14
l-30 7 25 -15z"/>
<path d="M3663 93 c9 -2 23 -2 30 0 6 3 -1 5 -18 5 -16 0 -22 -2 -12 -5z"/>
<path d="M1060 20 c0 -11 5 -20 10 -20 6 0 10 9 10 20 0 11 -4 20 -10 20 -5 0
-10 -9 -10 -20z"/>
</g>
</svg>
